#N canvas 123 179 745 812 12;
#X obj 16 373 loadbang;
#X obj 10 9 cnv 15 125 157 empty empty empty 20 12 0 14 #e0e0e0 #404040 0;
#X msg 17 70 \; pd dsp 1;
#X obj 17 38 loadbang;
#X text 17 8 enable audio, f 16;
#X obj 259 9 cnv 15 238 190 empty empty empty 20 12 0 14 #e0e0e0 #404040 0;
#X obj 300 239 s osc_method;
#X obj 414 214 bng 15 250 50 0 empty empty empty 17 7 0 10 #fcfcfc #000000 #000000;
#X obj 414 242 s stop;
#X obj 414 274 print stop;
#X obj 300 271 print interp;
#X text 264 8 receive OSC data;
#X obj 264 70 oscparse;
#X obj 264 38 netreceive -u -b 6672;
#X obj 263 126 list trim;
#X obj 263 158 route sel stop play;
#X obj 517 214 bng 16 250 50 0 empty empty empty 0 -8 0 10 #fcfcfc #000000 #000000;
#X obj 517 243 s play;
#X obj 172 529 r play;
#X obj 192 558 r stop;
#X obj 640 22 r osc_method;
#X msg 642 125 0;
#X msg 692 125 1;
#X msg 743 125 2;
#X obj 171 729 dac~;
#X obj 16 408 t b b b b;
#X obj 525 373 loadbang;
#X obj 681 529 r play;
#X obj 701 558 r stop;
#X obj 673 729 dac~;
#X obj 525 408 t b b b b;
#X obj 694 199 s play_id_1;
#X msg 798 125 0;
#X msg 852 125 1;
#X msg 898 125 2;
#X obj 853 199 s play_id_2;
#X obj 722 587 r play_id_2;
#X obj 213 587 r play_id_1;
#X obj 517 275 print play;
#X obj 640 58 route id_1 id_2 id_3 id_4 id_5 id_6 id_7 id_8 id_9 id_10 id_11 id_12, f 71;
#X msg 955 125 0;
#X msg 1009 125 1;
#X msg 1055 125 2;
#X obj 1010 199 s play_id_3;
#X msg 1133 125 0;
#X msg 1187 125 1;
#X msg 1233 125 2;
#X obj 1188 199 s play_id_4;
#X obj 1119 373 loadbang;
#X obj 1275 529 r play;
#X obj 1295 558 r stop;
#X obj 1286 729 dac~;
#X obj 1119 408 t b b b b;
#X obj 1316 587 r play_id_3;
#X obj 1664 373 loadbang;
#X obj 1820 529 r play;
#X obj 1840 558 r stop;
#X obj 1820 729 dac~;
#X obj 1664 408 t b b b b;
#X obj 1861 587 r play_id_4;
#X obj 109 631 switch_player_3_stereo;
#X obj 620 631 switch_player_3_stereo;
#X obj 1214 631 switch_player_3_stereo;
#X obj 1759 631 switch_player_3_stereo;
#X msg 112 442 sigs/TUB_experiment/casta/Static_[0_60]/Ref.wav;
#X msg 132 471 sigs/TUB_experiment/casta/Static_[0_60]/MagLS.wav;
#X msg 151 500 sigs/TUB_experiment/casta/Static_[0_60]/Phiona.wav;
#X msg 621 442 sigs/TUB_experiment/casta/Static_[0_90]/Ref.wav;
#X msg 641 471 sigs/TUB_experiment/casta/Static_[0_90]/MagLS.wav, f 66;
#X msg 660 500 sigs/TUB_experiment/casta/Static_[0_90]/Phiona.wav, f 65;
#X msg 1215 442 sigs/TUB_experiment/noise/Static_[0_60]/Ref.wav;
#X msg 1234 471 sigs/TUB_experiment/noise/Static_[0_60]/MagLS.wav;
#X msg 1254 500 sigs/TUB_experiment/noise/Static_[0_60]/Phiona.wav;
#X msg 1760 442 sigs/TUB_experiment/noise/Static_[0_90]/Ref.wav;
#X msg 1780 471 sigs/TUB_experiment/noise/Static_[0_90]/MagLS.wav;
#X msg 1799 500 sigs/TUB_experiment/noise/Static_[0_90]/Phiona.wav;
#X msg 95 318 \; pd audio-dialog 0 0 0 0 0 0 0 0 0 0 0 0 2 0 0 0 48000 50 0 64;
#X obj 93 254 loadbang;
#X connect 0 0 25 0;
#X connect 3 0 2 0;
#X connect 7 0 8 0;
#X connect 12 0 14 0;
#X connect 13 0 12 0;
#X connect 14 0 15 0;
#X connect 15 0 6 0;
#X connect 15 0 10 0;
#X connect 15 1 9 0;
#X connect 15 1 7 0;
#X connect 15 2 16 0;
#X connect 15 2 38 0;
#X connect 16 0 17 0;
#X connect 18 0 60 3;
#X connect 19 0 60 4;
#X connect 20 0 39 0;
#X connect 21 0 31 0;
#X connect 22 0 31 0;
#X connect 23 0 31 0;
#X connect 25 0 60 4;
#X connect 25 1 66 0;
#X connect 25 2 65 0;
#X connect 25 3 64 0;
#X connect 26 0 30 0;
#X connect 27 0 61 3;
#X connect 28 0 61 4;
#X connect 30 0 61 4;
#X connect 30 1 69 0;
#X connect 30 2 68 0;
#X connect 30 3 67 0;
#X connect 32 0 35 0;
#X connect 33 0 35 0;
#X connect 34 0 35 0;
#X connect 36 0 61 5;
#X connect 37 0 60 5;
#X connect 39 0 21 0;
#X connect 39 1 22 0;
#X connect 39 2 23 0;
#X connect 39 3 32 0;
#X connect 39 4 33 0;
#X connect 39 5 34 0;
#X connect 39 6 40 0;
#X connect 39 7 41 0;
#X connect 39 8 42 0;
#X connect 39 9 44 0;
#X connect 39 10 45 0;
#X connect 39 11 46 0;
#X connect 40 0 43 0;
#X connect 41 0 43 0;
#X connect 42 0 43 0;
#X connect 44 0 47 0;
#X connect 45 0 47 0;
#X connect 46 0 47 0;
#X connect 48 0 52 0;
#X connect 49 0 62 3;
#X connect 50 0 62 4;
#X connect 52 0 62 4;
#X connect 52 1 72 0;
#X connect 52 2 71 0;
#X connect 52 3 70 0;
#X connect 53 0 62 5;
#X connect 54 0 58 0;
#X connect 55 0 63 3;
#X connect 56 0 63 4;
#X connect 58 0 63 4;
#X connect 58 1 75 0;
#X connect 58 2 74 0;
#X connect 58 3 73 0;
#X connect 59 0 63 5;
#X connect 60 0 24 0;
#X connect 60 1 24 1;
#X connect 61 0 29 0;
#X connect 61 1 29 1;
#X connect 62 0 51 0;
#X connect 62 1 51 1;
#X connect 63 0 57 0;
#X connect 63 1 57 1;
#X connect 64 0 60 0;
#X connect 65 0 60 1;
#X connect 66 0 60 2;
#X connect 67 0 61 0;
#X connect 68 0 61 1;
#X connect 69 0 61 2;
#X connect 70 0 62 0;
#X connect 71 0 62 1;
#X connect 72 0 62 2;
#X connect 73 0 63 0;
#X connect 74 0 63 1;
#X connect 75 0 63 2;
#X connect 77 0 76 0;
