#N canvas 0 38 1512 827 12;
#X obj 338 981 *~ 0.5;
#X obj 330 345 soundfiler;
#X obj 368 675 phasor~;
#X obj 593 407 tgl 19 0 empty empty empty 0 -10 0 12 #fcfcfc #000000 #000000 0 1;
#X msg 570 365 1;
#X msg 625 363 0;
#X obj 593 448 sel 1 0;
#X obj 1032 389 == 0;
#X obj 1081 389 == 1;
#X obj 1032 429 sig~;
#X obj 1081 429 sig~;
#X obj 237 849 *~;
#X obj 416 852 *~;
#X obj 1129 429 sig~;
#X obj 620 852 *~;
#X obj 1129 389 == 2;
#X obj 1031 313 float;
#X obj 405 417 float;
#X floatatom 373 444 5 0 0 0 - - - 0;
#X obj 43 536 trigger float bang;
#X obj 17 660 /;
#X floatatom 284 442 10 0 0 0 - - - 0;
#X obj 16 696 float;
#X floatatom 354 403 5 0 0 0 - - - 0;
#X obj 590 490 bng 19 250 50 0 empty empty empty 0 -10 0 12 #fcfcfc #000000 #000000;
#X obj 620 491 bng 19 250 50 0 empty empty empty 0 -10 0 12 #fcfcfc #000000 #000000;
#X obj 118 705 *~;
#X obj 137 661 sig~;
#X floatatom 441 447 5 0 0 0 - - - 0;
#X msg 441 475 0;
#X obj 399 379 unpack f f f f s;
#X obj -342 84 inlet filename_1;
#X obj 1030 260 inlet id;
#X obj 917 214 inlet stop;
#X obj 746 213 inlet play;
#X text 823 261 massage: number start with 0;
#X text 660 212 bang: play;
#X text 835 213 bang: stop;
#X obj 339 1031 outlet~;
#X obj -341 122 symbol;
#X msg -341 161 read -resize \$1;
#X obj -335 379 list append;
#X obj -335 411 list trim;
#X obj -341 192 t a b;
#X obj 18 132 symbol;
#X msg 18 171 read -resize \$1;
#X obj 2 375 list append;
#X obj 2 407 list trim;
#X obj 18 202 t a b;
#X obj 17 94 inlet filename_2;
#X obj 333 100 symbol;
#X msg 333 139 read -resize \$1;
#X obj 332 229 list append;
#X obj 332 261 list trim;
#X obj 333 170 t a b;
#X obj 332 62 inlet filename_3;
#X msg 886 312 -1;
#X floatatom 1122 534 5 0 0 0 - - - 0;
#X floatatom 1179 537 5 0 0 0 - - - 0;
#X floatatom 1231 537 5 0 0 0 - - - 0;
#X obj -343 35 table array1-L-\$0;
#X obj 236 20 table array3-L-\$0;
#X obj -49 48 table array2-L-\$0;
#X obj -343 57 table array1-R-\$0;
#X obj -49 70 table array2-R-\$0;
#X obj 236 41 table array3-R-\$0;
#X obj 740 873 tabread4~ array1-R-\$0;
#X obj 919 873 tabread4~ array2-R-\$0;
#X obj 1124 873 tabread4~ array3-R-\$0;
#X obj 621 797 tabread4~ array3-L-\$0;
#X obj 416 802 tabread4~ array2-L-\$0;
#X obj 237 801 tabread4~ array1-L-\$0;
#X obj 805 926 *~;
#X obj 984 926 *~;
#X obj 1188 926 *~;
#X obj 959 988 *~ 0.5;
#X obj 956 1027 outlet~;
#X obj -177 276 symbol array1-R-\$0;
#X obj -319 277 symbol array1-L-\$0;
#X obj -206 242 t b b;
#X obj -203 303 list;
#X obj 136 253 t b b;
#X obj 142 314 list;
#X obj 22 282 symbol array2-L-\$0;
#X obj 164 281 symbol array2-R-\$0;
#X obj 475 160 t b b;
#X obj 466 228 list;
#X obj 366 198 symbol array3-L-\$0;
#X obj 508 198 symbol array3-R-\$0;
#X connect 0 0 38 0;
#X connect 1 0 21 0;
#X connect 1 0 19 0;
#X connect 1 1 30 0;
#X connect 2 0 26 0;
#X connect 3 0 6 0;
#X connect 4 0 3 0;
#X connect 5 0 3 0;
#X connect 6 0 24 0;
#X connect 6 1 25 0;
#X connect 6 1 28 0;
#X connect 6 1 29 0;
#X connect 7 0 9 0;
#X connect 7 0 57 0;
#X connect 8 0 10 0;
#X connect 8 0 58 0;
#X connect 9 0 11 1;
#X connect 9 0 72 1;
#X connect 10 0 12 1;
#X connect 10 0 73 1;
#X connect 11 0 0 0;
#X connect 12 0 0 0;
#X connect 13 0 14 1;
#X connect 13 0 74 1;
#X connect 14 0 0 0;
#X connect 15 0 13 0;
#X connect 15 0 59 0;
#X connect 16 0 7 0;
#X connect 16 0 8 0;
#X connect 16 0 15 0;
#X connect 17 0 18 0;
#X connect 17 0 20 0;
#X connect 19 0 20 1;
#X connect 19 0 27 0;
#X connect 19 1 17 0;
#X connect 20 0 22 0;
#X connect 22 0 23 0;
#X connect 23 0 2 0;
#X connect 24 0 22 0;
#X connect 26 0 69 0;
#X connect 26 0 70 0;
#X connect 26 0 71 0;
#X connect 26 0 66 0;
#X connect 26 0 67 0;
#X connect 26 0 68 0;
#X connect 27 0 26 1;
#X connect 28 0 2 0;
#X connect 29 0 2 1;
#X connect 30 0 17 0;
#X connect 31 0 39 0;
#X connect 32 0 16 0;
#X connect 33 0 5 0;
#X connect 33 0 56 0;
#X connect 34 0 4 0;
#X connect 39 0 40 0;
#X connect 40 0 43 0;
#X connect 41 0 42 0;
#X connect 42 0 1 0;
#X connect 43 0 41 0;
#X connect 43 1 79 0;
#X connect 44 0 45 0;
#X connect 45 0 48 0;
#X connect 46 0 47 0;
#X connect 47 0 1 0;
#X connect 48 0 46 0;
#X connect 48 1 81 0;
#X connect 49 0 44 0;
#X connect 50 0 51 0;
#X connect 51 0 54 0;
#X connect 52 0 53 0;
#X connect 53 0 1 0;
#X connect 54 0 52 0;
#X connect 54 1 85 0;
#X connect 55 0 50 0;
#X connect 56 0 16 0;
#X connect 66 0 72 0;
#X connect 67 0 73 0;
#X connect 68 0 74 0;
#X connect 69 0 14 0;
#X connect 70 0 12 0;
#X connect 71 0 11 0;
#X connect 72 0 75 0;
#X connect 73 0 75 0;
#X connect 74 0 75 0;
#X connect 75 0 76 0;
#X connect 77 0 80 1;
#X connect 78 0 80 0;
#X connect 79 0 78 0;
#X connect 79 1 77 0;
#X connect 80 0 41 1;
#X connect 81 0 83 0;
#X connect 81 1 84 0;
#X connect 82 0 46 1;
#X connect 83 0 82 0;
#X connect 84 0 82 1;
#X connect 85 0 87 0;
#X connect 85 1 88 0;
#X connect 86 0 52 1;
#X connect 87 0 86 0;
#X connect 88 0 86 1;
#X coords 0 -1 1 1 85 60 1 100 100;
