#N canvas 50 50 1000 800 10;
#X obj 50 50 readsf~ 2;
#X obj 50 20 r play_ID_1.1;
#X msg 50 80 open "/Users/orberebi/Documents/GitHub/TUB-BGU-colab/MUSHRA_2025/SSR_scene/dry_sigs/tub25_v2/Ref_median_L.wav" , 1;
#X obj 50 110 dac~ 1 2;
#X connect 1 0 2 0;
#X connect 2 0 0 0;
#X connect 0 0 3 0;
#X connect 0 1 3 1;
#X obj 50 290 readsf~ 2;
#X obj 50 260 r play_ID_2.1;
#X msg 50 320 open "/Users/orberebi/Documents/GitHub/TUB-BGU-colab/MUSHRA_2025/SSR_scene/dry_sigs/tub25_v2/MagLS_median_L.wav" , 1;
#X obj 50 350 dac~ 1 2;
#X connect 5 0 6 0;
#X connect 6 0 4 0;
#X connect 4 0 7 0;
#X connect 4 1 7 1;
#X obj 50 530 readsf~ 2;
#X obj 50 500 r play_ID_3.1;
#X msg 50 560 open "/Users/orberebi/Documents/GitHub/TUB-BGU-colab/MUSHRA_2025/SSR_scene/dry_sigs/tub25_v2/Phiona_median_L.wav" , 1;
#X obj 50 590 dac~ 1 2;
#X connect 9 0 10 0;
#X connect 10 0 8 0;
#X connect 8 0 11 0;
#X connect 8 1 11 1;
#X obj 50 770 readsf~ 2;
#X obj 50 740 r play_ID_4.1;
#X msg 50 800 open "/Users/orberebi/Documents/GitHub/TUB-BGU-colab/MUSHRA_2025/SSR_scene/dry_sigs/tub25_v2/Ref_horizontal_L.wav" , 1;
#X obj 50 830 dac~ 1 2;
#X connect 13 0 14 0;
#X connect 14 0 12 0;
#X connect 12 0 15 0;
#X connect 12 1 15 1;
#X obj 50 1010 readsf~ 2;
#X obj 50 980 r play_ID_5.1;
#X msg 50 1040 open "/Users/orberebi/Documents/GitHub/TUB-BGU-colab/MUSHRA_2025/SSR_scene/dry_sigs/tub25_v2/MagLS_horizontal_L.wav" , 1;
#X obj 50 1070 dac~ 1 2;
#X connect 17 0 18 0;
#X connect 18 0 16 0;
#X connect 16 0 19 0;
#X connect 16 1 19 1;
#X obj 50 1250 readsf~ 2;
#X obj 50 1220 r play_ID_6.1;
#X msg 50 1280 open "/Users/orberebi/Documents/GitHub/TUB-BGU-colab/MUSHRA_2025/SSR_scene/dry_sigs/tub25_v2/Phiona_horizontal_L.wav" , 1;
#X obj 50 1310 dac~ 1 2;
#X connect 21 0 22 0;
#X connect 22 0 20 0;
#X connect 20 0 23 0;
#X connect 20 1 23 1;
