#N canvas 759 46 745 821 12;
#X obj 130 225 simple_pd_player;
#X obj 130 183 bng 19 250 50 0 empty empty empty 0 -10 0 12 #fcfcfc #000000 #000000;
#X obj 135 70 bng 19 250 50 0 empty empty empty 0 -10 0 12 #fcfcfc #000000 #000000;
#X obj 130 267 bng 19 250 50 0 empty empty empty 0 -10 0 12 #fcfcfc #000000 #000000;
#X text 94 74 play;
#X text 90 184 stop;
#X obj 524 198 simple_pd_player;
#X obj 524 156 bng 19 250 50 0 empty empty empty 0 -10 0 12 #fcfcfc #000000 #000000;
#X obj 529 51 bng 19 250 50 0 empty empty empty 0 -10 0 12 #fcfcfc #000000 #000000;
#X obj 524 240 bng 19 250 50 0 empty empty empty 0 -10 0 12 #fcfcfc #000000 #000000;
#X text 493 49 play;
#X text 491 157 stop;
#X obj 343 363 cnv 15 238 190 empty empty empty 20 12 0 14 #e0e0e0 #404040 0;
#X obj 348 627 s osc_method;
#X obj 586 560 bng 15 250 50 0 empty empty empty 17 7 0 10 #fcfcfc #000000 #000000;
#X obj 586 588 s stop;
#X obj 478 599 print stop;
#X obj 374 599 print interp;
#X text 348 362 receive OSC data;
#X obj 347 439 oscparse;
#X obj 348 392 netreceive -u -b 6672;
#X obj 348 476 list trim;
#X obj 348 511 route sel stop play;
#X obj 648 560 bng 16 250 50 0 empty empty empty 0 -8 0 10 #fcfcfc #000000 #000000;
#X obj 648 589 s play;
#X obj 1228 347 r osc_method;
#X obj 130 144 r stop;
#X obj 125 363 cnv 15 125 157 empty empty empty 20 12 0 14 #e0e0e0 #404040 0;
#X obj 132 392 loadbang;
#X text 132 362 enable audio, f 16;
#X obj 201 75 loadbang;
#X obj 629 50 loadbang;
#X obj 524 114 r stop;
#X obj 1230 461 s play_id_1;
#X obj 1333 461 s play_id_2;
#X obj 135 28 r play_id_1;
#X obj 529 9 r play_id_2;
#X obj 944 196 simple_pd_player;
#X obj 944 154 bng 19 250 50 0 empty empty empty 0 -10 0 12 #fcfcfc #000000 #000000;
#X obj 949 49 bng 19 250 50 0 empty empty empty 0 -10 0 12 #fcfcfc #000000 #000000;
#X obj 944 238 bng 19 250 50 0 empty empty empty 0 -10 0 12 #fcfcfc #000000 #000000;
#X text 913 47 play;
#X text 911 155 stop;
#X obj 1049 48 loadbang;
#X obj 944 112 r stop;
#X obj 949 7 r play_id_3;
#X obj 1429 461 s play_id_3;
#X obj 904 592 netsend -u -b;
#X obj 1001 510 loadbang;
#X msg 1001 537 connect 127.0.0.1 5005;
#X text 902 342 OSC Send Interface;
#X obj 240 261 bng 19 250 50 0 empty empty empty 0 -10 0 12 #fcfcfc #000000 #000000;
#X obj 634 238 bng 19 250 50 0 empty empty empty 0 -10 0 12 #fcfcfc #000000 #000000;
#X obj 1054 237 bng 19 250 50 0 empty empty empty 0 -10 0 12 #fcfcfc #000000 #000000;
#X obj 733 425 symbol;
#X obj 733 479 list prepend send;
#X obj 733 506 list trim;
#X obj 733 452 oscformat -f s bang;
#X obj 898 420 symbol;
#X obj 898 474 list prepend send;
#X obj 898 501 list trim;
#X obj 898 447 oscformat -f s bang;
#X text 265 253 this bang is the begining of the second file;
#X obj 239 303 s osc_bang_1;
#X obj 130 304 s osc_bang_2;
#X obj 634 294 s osc_bang_1;
#X obj 525 294 s osc_bang_2;
#X obj 946 279 s osc_bang_2;
#X obj 1055 279 s osc_bang_1;
#X obj 898 366 r osc_bang_2;
#X msg 898 393 bang_2;
#X obj 733 371 r osc_bang_1;
#X msg 733 398 bang_1;
#X obj 1352 208 simple_pd_player;
#X obj 1352 166 bng 19 250 50 0 empty empty empty 0 -10 0 12 #fcfcfc #000000 #000000;
#X obj 1357 61 bng 19 250 50 0 empty empty empty 0 -10 0 12 #fcfcfc #000000 #000000;
#X obj 1352 250 bng 19 250 50 0 empty empty empty 0 -10 0 12 #fcfcfc #000000 #000000;
#X text 1321 59 play;
#X text 1319 167 stop;
#X obj 1457 60 loadbang;
#X obj 1352 124 r stop;
#X obj 1462 249 bng 19 250 50 0 empty empty empty 0 -10 0 12 #fcfcfc #000000 #000000;
#X obj 1354 291 s osc_bang_2;
#X obj 1463 291 s osc_bang_1;
#X obj 1357 19 r play_id_4;
#X obj 1791 202 simple_pd_player;
#X obj 1791 160 bng 19 250 50 0 empty empty empty 0 -10 0 12 #fcfcfc #000000 #000000;
#X obj 1796 55 bng 19 250 50 0 empty empty empty 0 -10 0 12 #fcfcfc #000000 #000000;
#X obj 1791 244 bng 19 250 50 0 empty empty empty 0 -10 0 12 #fcfcfc #000000 #000000;
#X text 1760 53 play;
#X text 1758 161 stop;
#X obj 1896 54 loadbang;
#X obj 1791 118 r stop;
#X obj 1901 243 bng 19 250 50 0 empty empty empty 0 -10 0 12 #fcfcfc #000000 #000000;
#X obj 1793 285 s osc_bang_2;
#X obj 1902 285 s osc_bang_1;
#X obj 1796 13 r play_id_5;
#X obj 2225 202 simple_pd_player;
#X obj 2225 160 bng 19 250 50 0 empty empty empty 0 -10 0 12 #fcfcfc #000000 #000000;
#X obj 2230 55 bng 19 250 50 0 empty empty empty 0 -10 0 12 #fcfcfc #000000 #000000;
#X obj 2225 244 bng 19 250 50 0 empty empty empty 0 -10 0 12 #fcfcfc #000000 #000000;
#X text 2194 53 play;
#X text 2192 161 stop;
#X obj 2330 54 loadbang;
#X obj 2225 118 r stop;
#X obj 2335 243 bng 19 250 50 0 empty empty empty 0 -10 0 12 #fcfcfc #000000 #000000;
#X obj 2227 285 s osc_bang_2;
#X obj 2336 285 s osc_bang_1;
#X obj 2230 13 r play_id_6;
#X obj 1228 383 route id_1 id_2 id_3 id_4 id_5 id_6;
#X obj 1230 497 s play_id_4;
#X obj 1333 497 s play_id_5;
#X obj 1429 497 s play_id_6;
#X msg 203 143 evaluated_signals/noise/Ref_reverb.wav;
#X msg 602 114 evaluated_signals/noise/Ref_reverb.wav;
#X msg 1022 112 evaluated_signals/noise/Ref_reverb.wav;
#X msg 639 158 evaluated_signals/noise/MagLS_reverb.wav;
#X msg 1059 156 evaluated_signals/noise/Phiona_reverb.wav;
#X msg 1430 124 evaluated_signals/casta/Ref_reverb.wav;
#X msg 1869 118 evaluated_signals/casta/Ref_reverb.wav;
#X msg 2303 118 evaluated_signals/casta/Ref_reverb.wav;
#X msg 1906 162 evaluated_signals/casta/MagLS_reverb.wav;
#X msg 2340 162 evaluated_signals/casta/Phiona_reverb.wav;
#X msg 239 183 evaluated_signals/noise/Ref_reverb.wav;
#X msg 1466 168 evaluated_signals/casta/Ref_reverb.wav;
#X msg 132 437 \; pd dsp 1;
#X msg 114 675 \; pd audio-dialog 0 0 0 0 0 0 0 0 0 0 0 0 2 0 0 0 48000 50 0 64;
#X obj 112 611 loadbang;
#X connect 0 0 3 0;
#X connect 0 1 51 0;
#X connect 1 0 0 0;
#X connect 2 0 0 1;
#X connect 3 0 64 0;
#X connect 6 0 9 0;
#X connect 6 1 52 0;
#X connect 7 0 6 0;
#X connect 8 0 6 1;
#X connect 9 0 66 0;
#X connect 14 0 15 0;
#X connect 19 0 21 0;
#X connect 20 0 19 0;
#X connect 21 0 22 0;
#X connect 22 0 13 0;
#X connect 22 0 17 0;
#X connect 22 1 16 0;
#X connect 22 1 14 0;
#X connect 22 2 23 0;
#X connect 23 0 24 0;
#X connect 25 0 109 0;
#X connect 26 0 1 0;
#X connect 28 0 125 0;
#X connect 30 0 113 0;
#X connect 30 0 123 0;
#X connect 31 0 114 0;
#X connect 31 0 116 0;
#X connect 32 0 7 0;
#X connect 35 0 2 0;
#X connect 36 0 8 0;
#X connect 37 0 40 0;
#X connect 37 1 53 0;
#X connect 38 0 37 0;
#X connect 39 0 37 1;
#X connect 40 0 67 0;
#X connect 43 0 115 0;
#X connect 43 0 117 0;
#X connect 44 0 38 0;
#X connect 45 0 39 0;
#X connect 48 0 49 0;
#X connect 49 0 47 0;
#X connect 51 0 63 0;
#X connect 52 0 65 0;
#X connect 53 0 68 0;
#X connect 54 0 57 0;
#X connect 55 0 56 0;
#X connect 56 0 47 0;
#X connect 57 0 55 0;
#X connect 58 0 61 0;
#X connect 59 0 60 0;
#X connect 60 0 47 0;
#X connect 61 0 59 0;
#X connect 69 0 70 0;
#X connect 70 0 58 0;
#X connect 71 0 72 0;
#X connect 72 0 54 0;
#X connect 73 0 76 0;
#X connect 73 1 81 0;
#X connect 74 0 73 0;
#X connect 75 0 73 1;
#X connect 76 0 82 0;
#X connect 79 0 118 0;
#X connect 79 0 124 0;
#X connect 80 0 74 0;
#X connect 81 0 83 0;
#X connect 84 0 75 0;
#X connect 85 0 88 0;
#X connect 85 1 93 0;
#X connect 86 0 85 0;
#X connect 87 0 85 1;
#X connect 88 0 94 0;
#X connect 91 0 119 0;
#X connect 91 0 121 0;
#X connect 92 0 86 0;
#X connect 93 0 95 0;
#X connect 96 0 87 0;
#X connect 97 0 100 0;
#X connect 97 1 105 0;
#X connect 98 0 97 0;
#X connect 99 0 97 1;
#X connect 100 0 106 0;
#X connect 103 0 120 0;
#X connect 103 0 122 0;
#X connect 104 0 98 0;
#X connect 105 0 107 0;
#X connect 108 0 99 0;
#X connect 109 0 33 0;
#X connect 109 1 34 0;
#X connect 109 2 46 0;
#X connect 109 3 110 0;
#X connect 109 4 111 0;
#X connect 109 5 112 0;
#X connect 113 0 0 2;
#X connect 114 0 6 2;
#X connect 115 0 37 2;
#X connect 116 0 6 3;
#X connect 117 0 37 3;
#X connect 118 0 73 2;
#X connect 119 0 85 2;
#X connect 120 0 97 2;
#X connect 121 0 85 3;
#X connect 122 0 97 3;
#X connect 123 0 0 3;
#X connect 124 0 73 3;
#X connect 127 0 126 0;
