#N canvas 344 285 682 526 12;
#X obj 399 293 readsf~ 2;
#X obj 399 360 dac~ 1 2;
#X obj 483 361 outlet;
#X obj 192 135 inlet file_name;
#X obj 196 173 symbol;
#X msg 191 239 open \$1;
#X msg 391 193 stop;
#X msg 469 221 start;
#X obj 391 131 inlet stop;
#X obj 475 130 inlet start;
#X obj 467 166 t b b;
#X connect 0 0 1 0;
#X connect 0 1 1 1;
#X connect 0 2 2 0;
#X connect 3 0 4 0;
#X connect 4 0 5 0;
#X connect 5 0 0 0;
#X connect 6 0 0 0;
#X connect 7 0 0 0;
#X connect 8 0 6 0;
#X connect 9 0 10 0;
#X connect 10 0 7 0;
#X connect 10 1 4 0;
