#N canvas 524 54 744 811 12;
#X obj 177 322 playfile;
#X obj 177 357 bng 16 250 50 0 empty empty empty 0 -8 0 10 #fcfcfc #000000 #000000;
#X obj 169 529 playfile;
#X obj 177 389 t b b;
#X obj 304 93 inlet filename_ref;
#X obj 304 128 symbol;
#X obj 452 128 symbol;
#X obj 452 93 inlet filename_sig;
#X obj 166 631 outlet;
#X obj 204 93 inlet play;
#X obj 88 93 inlet stop;
#X obj 204 128 t b b b;
#X obj 276 560 outlet;
#X obj 190 448 delay 500;
#X obj 166 585 delay 500;
#X connect 0 0 1 0;
#X connect 1 0 3 0;
#X connect 2 0 14 0;
#X connect 3 0 13 0;
#X connect 3 1 6 0;
#X connect 4 0 5 0;
#X connect 5 0 0 0;
#X connect 6 0 2 0;
#X connect 7 0 6 0;
#X connect 9 0 11 0;
#X connect 10 0 0 1;
#X connect 10 0 2 1;
#X connect 11 0 0 2;
#X connect 11 1 5 0;
#X connect 11 2 0 1;
#X connect 11 2 2 1;
#X connect 13 0 2 2;
#X connect 13 0 12 0;
#X connect 14 0 8 0;
